<svg width="1287" height="972" viewBox="0 0 1287 972" fill="none" xmlns="http://www.w3.org/2000/svg">
<path fill-rule="evenodd" clip-rule="evenodd" d="M821.071 13.6675C655.775 -35.0044 482.32 59.5381 433.648 224.834L362.468 466.572C357.473 483.534 338.598 493.236 321.725 487.949C320.341 487.515 318.951 487.093 317.554 486.682C186.398 448.062 48.7678 523.078 10.1484 654.234C-28.471 785.391 46.5449 923.021 177.701 961.64C269.052 988.539 363.543 960.311 425.533 896.384C461.972 858.807 523.422 839.21 573.634 853.995L815.372 925.176C980.668 973.848 1154.12 879.305 1202.8 714.009L1273.98 472.271C1322.65 306.975 1228.11 133.52 1062.81 84.8481L821.071 13.6675Z" fill="#FEBC0A" fill-opacity="0.7"/>
</svg>
